<svg width="111" height="34" viewBox="0 0 111 34" fill="none" xmlns="http://www.w3.org/2000/svg">
<path fill-rule="evenodd" clip-rule="evenodd" d="M62.6451 15.4904C63.2556 15.4904 63.8285 15.6196 64.3497 15.8765C64.8716 16.1341 65.3293 16.4832 65.7081 16.9146C66.0875 17.3468 66.388 17.856 66.6014 18.4295C66.8162 19.0007 66.9247 19.6097 66.9247 20.2383C66.9247 20.8752 66.8162 21.4857 66.6014 22.0539C66.3887 22.6213 66.0883 23.1223 65.7088 23.5416C65.3301 23.9617 64.8731 24.2987 64.3519 24.5435C63.8292 24.7883 63.2563 24.9129 62.6451 24.9129C62.019 24.9129 61.4328 24.7883 60.9035 24.5435C60.3734 24.2987 59.9083 23.9617 59.5215 23.5401C59.1332 23.1207 58.8283 22.6206 58.6112 22.0524C58.3927 21.4857 58.2842 20.8752 58.2842 20.2383C58.2842 19.6097 58.3927 19.0015 58.6112 18.4303C58.8283 17.8568 59.1339 17.3483 59.5222 16.9154C59.9098 16.4839 60.3749 16.1349 60.9065 15.8765C61.4336 15.6203 62.019 15.4904 62.6451 15.4904ZM69.5824 16.0616C69.2332 15.4549 68.8102 14.8958 68.3208 14.3994C67.8335 13.9037 67.2879 13.4738 66.6988 13.121C66.1112 12.7681 65.4667 12.4893 64.783 12.2929C63.4091 11.9007 61.8677 11.9038 60.5137 12.2936C59.8345 12.4893 59.19 12.7674 58.5994 13.121C58.0059 13.4746 57.4588 13.9052 56.9701 14.3994C56.4814 14.8958 56.0576 15.4549 55.7091 16.0616C55.3607 16.6668 55.0868 17.3317 54.8941 18.0374C54.7036 18.7408 54.6069 19.482 54.6069 20.2383C54.6069 20.9946 54.7036 21.7328 54.8941 22.4339C55.0861 23.1336 55.36 23.7947 55.7091 24.3969C56.0583 24.9991 56.4814 25.5589 56.9701 26.0576C57.4588 26.5578 58.0059 26.9899 58.5994 27.3435C59.1915 27.6971 59.8375 27.9759 60.5145 28.1709C61.1951 28.3666 61.9149 28.4663 62.6517 28.4663C63.3811 28.4663 64.0979 28.3666 64.783 28.1709C65.4652 27.9752 66.1097 27.6971 66.6988 27.3435C67.2872 26.9899 67.8335 26.5578 68.3215 26.0576C68.8102 25.5589 69.2332 24.9991 69.5824 24.3969C69.9309 23.7924 70.2063 23.1321 70.3975 22.4339C70.5879 21.7328 70.6854 20.9946 70.6854 20.2383C70.6854 19.482 70.5879 18.7408 70.3975 18.0366C70.2063 17.3332 69.9309 16.6691 69.5824 16.0616Z" fill="#522AFF"/>
<mask id="mask0_6422_128174" style="mask-type:alpha" maskUnits="userSpaceOnUse" x="94" y="12" width="17" height="17">
<path fill-rule="evenodd" clip-rule="evenodd" d="M94.585 12H110.664V28.4663H94.585V12Z" fill="white"/>
</mask>
<g mask="url(#mask0_6422_128174)">
<path fill-rule="evenodd" clip-rule="evenodd" d="M102.624 15.4904C103.234 15.4904 103.807 15.6196 104.328 15.8765C104.851 16.1341 105.308 16.4832 105.686 16.9146C106.066 17.3468 106.368 17.856 106.58 18.4295C106.795 19.0007 106.903 19.6097 106.903 20.2383C106.903 20.8752 106.795 21.4857 106.58 22.0539C106.368 22.6213 106.068 23.1223 105.688 23.5416C105.309 23.9617 104.852 24.2987 104.331 24.5435C103.809 24.7883 103.234 24.9129 102.624 24.9129C101.999 24.9129 101.412 24.7883 100.883 24.5435C100.353 24.2987 99.8871 23.9617 99.5003 23.5401C99.1127 23.1207 98.8063 22.6206 98.5893 22.0524C98.3715 21.4857 98.2629 20.8752 98.2629 20.2383C98.2629 19.6097 98.3715 19.0015 98.5893 18.4303C98.8063 17.8568 99.1134 17.3483 99.5017 16.9154C99.8886 16.4839 100.354 16.1349 100.885 15.8765C101.413 15.6203 101.999 15.4904 102.624 15.4904ZM110.375 18.0366C110.185 17.3332 109.91 16.6691 109.562 16.0616C109.213 15.4549 108.789 14.8958 108.302 14.3994C107.812 13.9037 107.267 13.4738 106.678 13.121C106.09 12.7681 105.445 12.4893 104.762 12.2929C103.388 11.9007 101.846 11.9038 100.492 12.2936C99.8133 12.4893 99.1688 12.7674 98.5782 13.121C97.9846 13.4746 97.4376 13.9052 96.9496 14.3994C96.4609 14.8958 96.0371 15.4549 95.6879 16.0616C95.3395 16.6668 95.0656 17.3317 94.8736 18.0374C94.6824 18.7408 94.585 19.482 94.585 20.2383C94.585 20.9946 94.6824 21.7328 94.8736 22.4339C95.0648 23.1336 95.3387 23.7947 95.6879 24.3969C96.0371 24.9991 96.4609 25.5589 96.9496 26.0576C97.4376 26.5578 97.9846 26.9899 98.5782 27.3435C99.171 27.6971 99.8162 27.9759 100.492 28.1709C101.174 28.3666 101.894 28.4663 102.631 28.4663C103.359 28.4663 104.077 28.3666 104.762 28.1709C105.444 27.9752 106.088 27.6971 106.678 27.3435C107.266 26.9899 107.812 26.5578 108.302 26.0576C108.789 25.5589 109.213 24.9991 109.562 24.3969C109.91 23.7924 110.185 23.1321 110.375 22.4339C110.567 21.7328 110.664 20.9946 110.664 20.2383C110.664 19.482 110.567 18.7408 110.375 18.0366Z" fill="#522AFF"/>
</g>
<path fill-rule="evenodd" clip-rule="evenodd" d="M15.5688 9.59521H13.2456H12.6225H12.5752V10.208V21.5579C11.2884 19.6789 10.0135 17.8126 8.74958 15.96C7.52039 14.1595 6.2779 12.3439 5.02804 10.5185L5.02951 10.5177L4.39904 9.59521H4.19898H3.96052H3.3869H1.19206H0.521729V10.2941V27.5087V28.1834H1.19206H3.50354H4.19898V27.4958V15.6019C5.5175 17.5769 6.83455 19.5451 8.15086 21.5088C9.36159 23.3176 10.5797 25.1279 11.8008 26.9397H11.7971L12.6225 28.1698V28.1834H12.6313H12.9805H15.1222H15.5932H16.299V27.5344V10.282V9.59521H15.5688Z" fill="#522AFF"/>
<path fill-rule="evenodd" clip-rule="evenodd" d="M23.0898 17.3377C23.3571 16.941 23.676 16.5905 24.0363 16.2958C24.3965 16.0034 24.7996 15.7684 25.233 15.5977C26.1676 15.2297 27.1997 15.2856 28.0516 15.5803C28.5086 15.7397 28.9191 15.9656 29.2735 16.2542C29.6293 16.5436 29.9364 16.8919 30.1874 17.2909C30.4081 17.6414 30.5816 18.029 30.7042 18.4438H22.5539C22.6779 18.051 22.8588 17.6807 23.0898 17.3377ZM30.0361 23.735L29.9438 23.8219C29.7747 23.9738 29.5806 24.1218 29.3643 24.2639C29.1243 24.4195 28.8622 24.5593 28.5839 24.6772C28.3034 24.7966 27.9977 24.894 27.6759 24.965C26.9332 25.1298 26.0938 25.1131 25.2883 24.8404C24.8306 24.6855 24.4039 24.4528 24.0163 24.1483C23.6302 23.843 23.2899 23.4653 23.0057 23.024C22.7532 22.6311 22.5716 22.1778 22.4638 21.6761H32.9736C33.2777 21.6761 33.5103 21.6519 33.6853 21.6028C33.872 21.5507 34.0175 21.4615 34.1171 21.3399C34.2139 21.2205 34.2751 21.0656 34.2988 20.879C34.3194 20.7135 34.3298 20.5065 34.3298 20.2632C34.3298 19.2848 34.2139 18.3804 33.9872 17.5734C33.7591 16.7658 33.3966 16.0004 32.9071 15.2992C32.5469 14.7892 32.1261 14.3268 31.6558 13.9234C31.1826 13.5199 30.671 13.1723 30.1298 12.889C29.5887 12.6057 29.0099 12.3843 28.4075 12.2309C27.0698 11.8886 25.642 11.937 24.4047 12.2936C23.7247 12.4893 23.0839 12.7704 22.5037 13.1285C21.9204 13.4866 21.3859 13.9234 20.9149 14.4273C20.4432 14.9305 20.0379 15.4926 19.7086 16.0948C19.3794 16.6993 19.121 17.3543 18.943 18.0449C18.7637 18.7355 18.6736 19.4616 18.6736 20.2013C18.6736 21.3505 18.8936 22.4377 19.3299 23.4335C19.764 24.4278 20.3605 25.3073 21.0995 26.047C21.8377 26.7867 22.7126 27.3775 23.6959 27.8014C24.6793 28.226 25.735 28.4414 26.832 28.4414C27.8486 28.4414 28.7965 28.2593 29.6492 27.9004C30.4975 27.543 31.2904 27.0466 31.9976 26.4293C32.0264 26.4074 32.0478 26.3847 32.0744 26.3621L30.0361 23.735Z" fill="#522AFF"/>
<mask id="mask1_6422_128174" style="mask-type:alpha" maskUnits="userSpaceOnUse" x="36" y="11" width="17" height="23">
<path fill-rule="evenodd" clip-rule="evenodd" d="M36.3726 11.9614H52.344V33.7031H36.3726V11.9614Z" fill="white"/>
</mask>
<g mask="url(#mask1_6422_128174)">
<path fill-rule="evenodd" clip-rule="evenodd" d="M48.872 20.2839C48.8564 20.9042 48.7287 21.4988 48.4918 22.0541C48.2548 22.6095 47.9307 23.1028 47.5269 23.5199C47.1252 23.9362 46.6446 24.2724 46.1013 24.5188C45.5601 24.7643 44.9754 24.8882 44.3649 24.8882C43.7462 24.8882 43.1689 24.762 42.647 24.5135C42.125 24.2641 41.6636 23.9196 41.2775 23.4927C40.8892 23.0643 40.5821 22.5604 40.365 21.9914C40.1487 21.4248 40.0373 20.8135 40.0373 20.1766C40.0373 19.548 40.1487 18.942 40.365 18.3746C40.5821 17.8064 40.8892 17.3017 41.2775 16.8733C41.6644 16.4441 42.1258 16.1011 42.647 15.8525C43.1675 15.604 43.7448 15.4778 44.3649 15.4778C44.9754 15.4778 45.5601 15.6017 46.1013 15.8472C46.6446 16.0943 47.1252 16.4313 47.5269 16.8514C47.9307 17.2722 48.2548 17.7679 48.4918 18.324C48.7287 18.8793 48.8564 19.4739 48.872 20.0904V20.2839ZM50.124 12.2092C50.0583 12.2085 49.9941 12.2077 49.9277 12.2077C49.9188 12.2077 49.9129 12.2092 49.9055 12.2092H48.9266V14.0679C48.6889 13.8178 48.4312 13.5806 48.1603 13.36C47.8089 13.0751 47.4257 12.8258 47.0219 12.618C46.6151 12.4072 46.1758 12.244 45.7159 12.1314C45.2545 12.0188 44.7547 11.9614 44.232 11.9614C43.5011 11.9614 42.7895 12.0612 42.1169 12.2561C41.4466 12.4518 40.8132 12.7306 40.2344 13.0849C39.6556 13.4393 39.124 13.8722 38.6516 14.3709C38.1813 14.8703 37.7708 15.4302 37.4334 16.0331C37.096 16.636 36.8318 17.2964 36.6487 17.996C36.4671 18.6934 36.3726 19.4271 36.3726 20.1766C36.3726 20.9336 36.4671 21.668 36.6487 22.3586C36.8318 23.0492 37.096 23.6997 37.4334 24.2913C37.7716 24.8822 38.182 25.4262 38.6545 25.9097C39.1262 26.3933 39.6593 26.8119 40.2366 27.1526C40.8161 27.4949 41.4488 27.7608 42.1199 27.9429C42.7902 28.1265 43.5011 28.2195 44.232 28.2195C44.7547 28.2195 45.2493 28.1598 45.7004 28.0427C46.1507 27.9248 46.5738 27.7608 46.9569 27.5561C47.343 27.3513 47.7048 27.1073 48.0355 26.8308C48.2666 26.6388 48.491 26.4341 48.7051 26.218C48.7044 26.2792 48.7029 26.3419 48.7029 26.4061C48.7029 26.5928 48.6844 26.756 48.6431 26.9161C48.5973 27.408 48.4452 27.8583 48.1898 28.255C47.9322 28.6562 47.5962 29.0045 47.1932 29.2878C46.7856 29.5734 46.3132 29.7948 45.789 29.9459C45.2626 30.0978 44.7023 30.1741 44.1235 30.1741C43.8873 30.1741 43.6148 30.1582 43.3122 30.1257C43.0132 30.0948 42.7075 30.0396 42.4048 29.9633C42.1022 29.887 41.8098 29.7888 41.5344 29.6739C41.265 29.5613 41.0376 29.4223 40.8538 29.2584L39.0325 31.9874C39.364 32.2526 39.739 32.4952 40.1473 32.7075C40.5518 32.919 40.9844 33.1004 41.4326 33.2462C41.8748 33.3912 42.3377 33.5038 42.8057 33.5847C43.276 33.6632 43.7477 33.7033 44.2077 33.7033C45.301 33.7033 46.3516 33.5386 47.3275 33.2167C48.3087 32.8896 49.182 32.3886 49.9232 31.7268C50.6659 31.0634 51.2602 30.2172 51.6936 29.2115C52.1247 28.2089 52.344 27.0091 52.344 25.6483V24.4583V13.0789V12.2092H50.124Z" fill="#522AFF"/>
</g>
<path fill-rule="evenodd" clip-rule="evenodd" d="M82.381 24.7504C81.2832 25.197 80.0592 25.1781 79.0433 24.6862C78.5133 24.4286 78.0386 24.0742 77.6355 23.6337C77.2316 23.1932 76.909 22.6734 76.6743 22.0871C76.4425 21.5046 76.3251 20.882 76.3251 20.2383C76.3251 19.5945 76.4425 18.9719 76.6743 18.3894C76.909 17.8039 77.2316 17.2833 77.6355 16.8428C78.0386 16.4023 78.5133 16.0479 79.0433 15.7903C80.0592 15.2984 81.2832 15.2795 82.381 15.7261C82.9103 15.9414 83.3798 16.2232 83.7778 16.567L85.6153 13.6823C85.5828 13.6506 85.551 13.6264 85.5186 13.5931L85.5045 13.6075L85.5163 13.5924C84.8896 13.1096 84.1631 12.7212 83.3569 12.4379C82.5515 12.1546 81.6855 12.0103 80.7834 12.0103C80.0606 12.0103 79.3497 12.11 78.669 12.3057C77.9898 12.5014 77.3468 12.7802 76.7584 13.1338C76.1693 13.4859 75.6237 13.9158 75.1343 14.4122C74.6455 14.9078 74.2196 15.4662 73.8659 16.0736C73.5123 16.6811 73.2355 17.3437 73.0443 18.0426C72.8538 18.7407 72.7571 19.4797 72.7571 20.2383C72.7571 20.9968 72.8538 21.735 73.0443 22.4339C73.2355 23.1328 73.5123 23.7954 73.8659 24.4029C74.2196 25.0103 74.6455 25.5695 75.1343 26.0643C75.6237 26.5607 76.1693 26.9907 76.7584 27.3427C77.3468 27.6963 77.9898 27.9751 78.669 28.1708C79.3497 28.3665 80.0606 28.4663 80.7834 28.4663C81.6855 28.4663 82.5515 28.3219 83.3569 28.0394C84.1631 27.756 84.8896 27.3669 85.5163 26.8841L85.5045 26.8698L85.5186 26.8834C85.551 26.8494 85.5828 26.8259 85.6153 26.795L83.7778 23.9095C83.3798 24.2533 82.9103 24.5351 82.381 24.7504Z" fill="#522AFF"/>
<path fill-rule="evenodd" clip-rule="evenodd" d="M88.4817 10.4623H92.2431V6.79785H88.4817V10.4623Z" fill="#522AFF"/>
<path fill-rule="evenodd" clip-rule="evenodd" d="M88.4817 28.1831H92.2431V12.2446H88.4817V28.1831Z" fill="#522AFF"/>
</svg>
